<svg xmlns="http://www.w3.org/2000/svg" width="16" height="16" fill="none" viewBox="0 0 16 16"><g clip-path="url(#clip0_1892_127328)"><path stroke="#A62218" stroke-linecap="round" stroke-linejoin="round" d="M8 14C9.5913 14 11.1174 13.3679 12.2426 12.2426C13.3679 11.1174 14 9.5913 14 8C14 6.4087 13.3679 4.88258 12.2426 3.75736C11.1174 2.63214 9.5913 2 8 2C6.4087 2 4.88258 2.63214 3.75736 3.75736C2.63214 4.88258 2 6.4087 2 8C2 9.5913 2.63214 11.1174 3.75736 12.2426C4.88258 13.3679 6.4087 14 8 14Z"/><path stroke="#A62218" stroke-linecap="round" stroke-linejoin="round" d="M6 5.33203L10 10.6654"/><path stroke="#A62218" stroke-linecap="round" stroke-linejoin="round" d="M10 5.33203L6 10.6654"/></g><defs><clipPath id="clip0_1892_127328"><rect width="16" height="16" fill="#fff"/></clipPath></defs></svg>