<svg xmlns="http://www.w3.org/2000/svg" width="12" height="12" fill="none" viewBox="0 0 12 12"><path fill="#666" d="M6.36001 5.39995C6.12001 5.33995 5.88001 5.21995 5.70001 5.03995C5.52001 4.97995 5.46001 4.79995 5.46001 4.67995C5.46001 4.55995 5.52001 4.37995 5.64001 4.31995C5.82001 4.19995 6.00001 4.07995 6.18001 4.13995C6.54001 4.13995 6.84001 4.31995 7.02001 4.55995L7.56001 3.83995C7.38001 3.65995 7.20001 3.53995 7.02001 3.41995C6.84001 3.29995 6.60001 3.23995 6.36001 3.23995V2.39995H5.64001V3.23995C5.34001 3.29995 5.04001 3.47995 4.80001 3.71995C4.56001 4.01995 4.38001 4.37995 4.44001 4.73995C4.44001 5.09995 4.56001 5.45995 4.80001 5.69995C5.10001 5.99995 5.52001 6.17995 5.88001 6.35995C6.06001 6.41995 6.30001 6.53995 6.48001 6.65995C6.60001 6.77995 6.66001 6.95995 6.66001 7.13995C6.66001 7.31995 6.60001 7.49995 6.48001 7.67995C6.30001 7.85995 6.06001 7.91995 5.88001 7.91995C5.64001 7.91995 5.34001 7.85995 5.16001 7.67995C4.98001 7.55995 4.80001 7.37995 4.68001 7.19995L4.08001 7.85995C4.26001 8.09995 4.44001 8.27995 4.68001 8.45995C4.98001 8.63995 5.34001 8.81995 5.70001 8.81995V9.59995H6.36001V8.69995C6.72001 8.63995 7.02001 8.45995 7.26001 8.21995C7.56001 7.91995 7.74001 7.43995 7.74001 7.01995C7.74001 6.65995 7.62001 6.23995 7.32001 5.99995C7.02001 5.69995 6.72001 5.51995 6.36001 5.39995ZM6.00001 1.19995C3.36001 1.19995 1.20001 3.35995 1.20001 5.99995C1.20001 8.63995 3.36001 10.8 6.00001 10.8C8.64001 10.8 10.8 8.63995 10.8 5.99995C10.8 3.35995 8.64001 1.19995 6.00001 1.19995ZM6.00001 10.14C3.72001 10.14 1.86001 8.27995 1.86001 5.99995C1.86001 3.71995 3.72001 1.85995 6.00001 1.85995C8.28001 1.85995 10.14 3.71995 10.14 5.99995C10.14 8.27995 8.28001 10.14 6.00001 10.14Z"/></svg>